<svg width="324" height="480" viewBox="0 0 324 480" fill="none" xmlns="http://www.w3.org/2000/svg">
<path fillRule="evenodd" clipRule="evenodd" d="M181.683 152.656C195.326 152.656 206.379 163.71 206.379 177.353C206.379 190.995 195.326 202.049 181.683 202.049C168.04 202.049 156.986 190.995 156.986 177.353C156.986 163.71 168.04 152.656 181.683 152.656ZM161.987 175.789H176.319L165.937 165.415C163.719 168.34 162.288 171.91 161.987 175.789ZM169.012 162.199L179.456 172.643V157.719C175.506 158.161 171.901 159.769 169.012 162.199ZM183.909 157.719V172.643L194.354 162.199C191.455 159.769 187.859 158.161 183.909 157.719ZM197.429 165.415L187.046 175.789H201.378C201.078 171.91 199.646 168.34 197.429 165.415ZM201.228 180.233H187.046L196.845 190.023C199.125 187.293 200.689 183.926 201.228 180.233ZM193.62 193.098L183.909 183.379V196.986C187.532 196.58 190.863 195.192 193.62 193.098ZM179.456 196.986V183.379L169.745 193.098C172.502 195.192 175.833 196.58 179.456 196.986ZM166.52 190.023L176.319 180.233H162.129C162.677 183.926 164.232 187.293 166.52 190.023Z" fill="#583711" stroke="white" strokeWidth="0.45" strokeMiterlimit="22.9256"/>
<path fillRule="evenodd" clipRule="evenodd" d="M181.683 150.182C196.687 150.182 208.854 162.349 208.854 177.353C208.854 192.356 196.687 204.523 181.683 204.523C166.68 204.523 154.513 192.356 154.513 177.353C154.513 162.349 166.68 150.182 181.683 150.182ZM181.683 152.656C195.326 152.656 206.38 163.71 206.38 177.353C206.38 190.995 195.326 202.049 181.683 202.049C168.041 202.049 156.987 190.995 156.987 177.353C156.987 163.71 168.041 152.656 181.683 152.656ZM161.988 175.789H176.32L165.938 165.415C163.72 168.34 162.288 171.91 161.988 175.789ZM169.013 162.199L179.457 172.643V157.719C175.507 158.161 171.902 159.769 169.013 162.199ZM183.91 157.719V172.643L194.354 162.199C191.456 159.769 187.86 158.161 183.91 157.719ZM197.429 165.415L187.047 175.789H201.379C201.078 171.91 199.647 168.34 197.429 165.415ZM201.228 180.233H187.047L196.846 190.023C199.125 187.293 200.689 183.926 201.228 180.233ZM193.621 193.098L183.91 183.379V196.986C187.533 196.58 190.864 195.192 193.621 193.098ZM179.457 196.986V183.379L169.746 193.098C172.503 195.192 175.834 196.58 179.457 196.986ZM166.521 190.023L176.32 180.233H162.129C162.677 183.926 164.232 187.293 166.521 190.023Z" fill="white" stroke="white" strokeWidth="0.45" strokeMiterlimit="22.9256"/>
<path fillRule="evenodd" clipRule="evenodd" d="M181.688 139.296C202.709 139.296 219.745 156.332 219.745 177.353C219.745 198.373 202.709 215.409 181.688 215.409C160.668 215.409 143.632 198.373 143.632 177.353C143.632 156.332 160.668 139.296 181.688 139.296ZM181.688 150.182C196.692 150.182 208.859 162.349 208.859 177.353C208.859 192.356 196.692 204.523 181.688 204.523C166.685 204.523 154.518 192.356 154.518 177.353C154.518 162.349 166.685 150.182 181.688 150.182Z" fill="#583711" stroke="white" strokeWidth="0.45" strokeMiterlimit="22.9256"/>
<path fillRule="evenodd" clipRule="evenodd" d="M181.684 136.601C204.189 136.601 222.436 154.847 222.436 177.353C222.436 199.858 204.189 218.104 181.684 218.104C159.179 218.104 140.933 199.858 140.933 177.353C140.933 154.847 159.179 136.601 181.684 136.601ZM181.684 139.296C202.705 139.296 219.741 156.332 219.741 177.353C219.741 198.373 202.705 215.409 181.684 215.409C160.663 215.409 143.628 198.373 143.628 177.353C143.628 156.332 160.663 139.296 181.684 139.296Z" fill="white" stroke="white" strokeWidth="0.45" strokeMiterlimit="22.9256"/>
<path fillRule="evenodd" clipRule="evenodd" d="M159.48 143.175L116.387 76.8258C125.585 69.4743 136.312 65.4716 148.311 64.2699C149.265 69.3594 155.91 67.5215 155.062 63.89C158.26 63.8458 161.547 63.9783 164.905 64.2787L175.703 137.034C169.782 137.909 164.286 140.047 159.48 143.175Z" fill="#583711" stroke="white" strokeWidth="0.45" strokeMiterlimit="22.9256"/>
<path fillRule="evenodd" clipRule="evenodd" d="M89.4365 25.5951C98.0869 32.5313 114.089 38.9285 129.534 33.0791C152.145 23.2005 166.256 22.1491 182.064 37.3646V21.2124C165.567 8.79792 145.359 10.0615 129.817 21.018C117.305 29.5978 102.231 29.9424 89.4365 25.5951Z" fill="white" stroke="white" strokeWidth="0.45" strokeMiterlimit="22.9256"/>
<path fillRule="evenodd" clipRule="evenodd" d="M173.177 3.39896C174.776 0.200346 180.457 0.200346 182.066 3.39896V21.2123C165.569 8.79774 145.361 10.0613 129.819 21.0179C117.307 29.5976 102.233 29.9422 89.4382 25.5949C98.0886 32.5311 114.091 38.9284 129.536 33.079C152.147 23.2004 166.258 22.1489 182.066 37.3644V118.222C180.263 118.638 179.176 116.87 178.77 113.097C176.905 98.0763 177.86 70.8262 173.177 68.034V43.4966C162.3 33.4589 145.829 33.5384 132.178 40.4305C120.011 46.7482 99.2461 41.4113 86.3809 32.593C72.6234 22.8204 62.3913 24.9322 51.9825 35.5177C51.417 35.0317 50.8604 34.5457 50.3037 34.0509C58.9188 14.3997 78.0045 11.0156 89.5177 17.3244C97.8323 21.6717 112.836 21.9103 123.81 14.815C140.97 2.28563 156.954 -2.25605 173.177 5.45774V3.39896Z" fill="#583711" stroke="white" strokeWidth="0.45" strokeMiterlimit="22.9256"/>
<path fillRule="evenodd" clipRule="evenodd" d="M78.331 223.936C77.5535 225.765 76.7582 227.126 75.1059 228.248C74.6641 228.531 74.187 228.354 74.4697 228.106C76.1662 226.604 77.1117 224.811 75.9012 223.485C76.8024 223.706 77.6595 223.936 78.331 223.936Z" fill="white" stroke="white" strokeWidth="0.45" strokeMiterlimit="22.9256"/>
<path fillRule="evenodd" clipRule="evenodd" d="M127.2 295.666C125.724 298.202 124.036 298.785 122.243 298.794C132.033 275.131 132.457 260.844 124.964 254.464C119.795 250.399 113.725 249.268 110.014 252.688C107.478 255.082 107.681 256.77 109.068 258.228C110.844 259.748 109.545 262.84 106.718 262.301C103.148 261.603 100.002 261.736 99.2425 264.661C98.8891 266.578 98.9598 268.964 96.9894 270.404C95.664 271.243 94.4446 271.182 92.5449 270.148C90.9809 269.034 88.1887 269.353 85.75 270.148C81.332 271.429 80.3689 268.796 79.1672 266.596C78.6017 265.509 77.6474 263.53 79.5295 263.22C81.1553 262.938 81.5883 262.363 81.5176 260.897C81.3762 259.757 81.4646 258.405 81.924 257.168C82.0919 256.699 82.8518 256.664 83.0551 257C84.1861 260.464 86.1035 262.39 88.9398 262.434C89.9471 262.337 91.5111 262.24 91.7143 261.365C91.785 260.11 91.8999 258.688 92.4565 257.76C92.5537 257.698 93.4461 257.627 93.4727 257.786C93.6494 258.979 94.1442 260.755 95.2664 260.658C97.5902 260.349 98.7654 250.17 104.049 250.285C108.335 250.302 108.803 247.819 106.771 245.257C103.82 241.281 99.543 238.25 95.9467 237.419C93.2076 236.827 92.0236 237.084 89.8853 238.886C88.4273 240.061 88.4361 243.534 87.6851 243.64C86.5364 243.49 84.3804 240.786 84.2214 237.393C84.1861 236.889 83.5587 236.721 83.3025 236.836C82.6133 237.084 81.3055 238.745 79.7416 238.913C78.3367 238.939 77.0908 237.446 75.8979 238.382C74.4046 240.335 75.8449 245.398 74.5637 245.257C72.929 244.965 71.047 242.261 70.7201 239.275C70.6494 238.939 70.402 238.568 69.9248 238.683C68.3432 239.452 67.7865 238.303 66.143 237.755C65.392 237.552 65.1711 236.085 66.6202 235.016C68.8998 233.611 70.1015 231.552 70.0132 227.647C70.1104 222.177 73.2206 222.822 75.8979 223.485C77.1085 224.81 76.163 226.604 74.4665 228.106C74.1838 228.354 74.6609 228.53 75.1027 228.248C76.755 227.125 77.5503 225.765 78.3278 223.936C80.7312 218.802 86.4569 218.555 90.9367 221.523C93.2341 221.25 95.9821 221.85 97.3075 223.512C98.8803 222.584 101.292 222.257 104.261 223.406C106.302 222.31 106.055 220.834 106.338 219.968C106.638 219.023 107.734 218.236 109.121 218.104C110.323 217.936 111.003 218.652 111.86 218.97C112.885 219.367 114.122 220.013 115.474 219.853C116.649 218.307 117.409 217.998 119.371 218.104C119.777 210.549 128.79 210.761 133.12 206.087C133.544 206.114 134.304 206.741 134.18 207.121C132.793 211.238 127.438 215.391 128.834 219.147C129.947 219.182 132.103 220.004 133.226 220.87C132.572 213.863 145.419 213.686 149.846 208.04C150.412 207.315 151.737 207.483 151.728 208.773C150.632 217.918 145.676 217.45 144.916 222.257C144.518 224.731 143.855 226.109 141.761 227.585C149.007 233.814 142.733 241.996 145.455 248.897C145.737 249.648 145.163 250.285 144.412 250.152C143.246 249.701 140.833 248.137 139.755 246.255C137.493 250.832 137.405 255.887 140.436 259.898C140.197 260.596 138.439 261.029 137.458 260.737C136.795 264.122 137.016 266.967 138.032 269.936C140.63 267.568 145.128 271.067 143.599 275.087C142.777 277.172 140.683 278.993 137.82 278.091C136.371 277.605 135.532 277.172 134.816 276.209C133.084 283.676 129.735 290.188 127.2 295.666Z" fill="#583711" stroke="white" strokeWidth="0.45" strokeMiterlimit="22.9256"/>
<path fillRule="evenodd" clipRule="evenodd" d="M113.625 219.641C114.765 220.507 114.641 222.389 112.37 222.973C111.937 223.132 112.052 223.83 112.635 223.918C113.881 224.121 115.153 221.753 116.815 220.914C118.114 219.977 120.349 219.491 122.222 220.702C123.362 221.453 124.696 222.955 125.836 223.185C127.215 223.476 126.79 220.702 126.057 220.18C125.341 219.703 123.654 219.747 122.487 219.5C121.348 219.191 120.632 218.343 119.377 218.104C117.415 217.998 116.656 218.307 115.48 219.854C114.827 219.924 114.208 219.818 113.625 219.641Z" fill="white" stroke="white" strokeWidth="0.45" strokeMiterlimit="22.9256"/>
<path fillRule="evenodd" clipRule="evenodd" d="M90.9385 221.524C96.5758 223.149 102.522 232.701 108.319 232.524C109.291 232.401 109.017 230.96 108.027 230.96C102.505 230.686 99.4652 226.162 99.0499 225.358C98.5197 224.599 99.5977 223.176 103.344 223.883C104.917 224.245 105.642 225.182 106.437 225.871C106.613 225.023 107.347 224.925 108.584 225.173C111.031 225.579 112.754 226.375 114.045 227.691C114.08 226.551 114.813 226.03 115.838 225.676C112.834 226.428 109.883 223.697 106.437 224.395C105.297 224.581 105.297 222.911 105.783 221.992C105.518 222.487 105.067 222.973 104.263 223.406C101.294 222.257 98.882 222.584 97.3092 223.512C95.9838 221.851 93.2358 221.25 90.9385 221.524Z" fill="white" stroke="white" strokeWidth="0.45" strokeMiterlimit="22.9256"/>
<path fillRule="evenodd" clipRule="evenodd" d="M130.263 238.692C122.514 242.5 116.709 237.773 113.961 233.691C113.802 233.187 114.623 232.754 114.994 233.408C119.934 238.612 125.474 239.178 130.104 235.078C132.781 232.728 130.378 229.229 133.974 232.887C138.834 238.1 132.587 250.506 134.522 258.529C134.663 259.156 133.895 259.244 133.709 258.555C132.119 253.925 133.4 241.696 132.401 238.789C132.057 237.897 131.076 238.224 130.263 238.692Z" fill="white" stroke="white" strokeWidth="0.45" strokeMiterlimit="22.9256"/>
<path fillRule="evenodd" clipRule="evenodd" d="M90.9708 225.888C92.1902 226.083 92.2962 226.728 92.9501 227.143C93.6481 227.656 94.4168 226.763 93.6835 226.101C91.3331 224.051 87.4364 223.83 85.6339 226.834C82.3027 227.7 83.098 232.409 86.4998 232.604C88.8502 232.719 89.7426 231.923 89.7691 230.854C89.8221 229.061 88.0196 229.909 87.6485 228.91C87.2862 227.691 88.1256 227.134 89.239 227.232C88.9297 226.374 89.4069 225.712 90.9708 225.888Z" fill="white" stroke="white" strokeWidth="0.45" strokeMiterlimit="22.9256"/>
<path fillRule="evenodd" clipRule="evenodd" d="M120.751 233.611C120 230.059 118.02 229.379 115.829 228.389C115.767 227.788 114.884 227.726 115.414 227.081C116.536 225.782 118.082 227.125 119.31 226.71C126.388 224.369 125.018 230.183 127.493 231.994C125.708 233.443 123.225 234.256 120.751 233.611Z" fill="white" stroke="white" strokeWidth="0.45" strokeMiterlimit="22.9256"/>
<path d="M120.784 229.723C121.306 229.723 121.73 229.209 121.73 228.575C121.73 227.94 121.306 227.426 120.784 227.426C120.262 227.426 119.839 227.94 119.839 228.575C119.839 229.209 120.262 229.723 120.784 229.723Z" fill="#583711" stroke="white" strokeWidth="0.45" strokeMiterlimit="22.9256"/>
<path fillRule="evenodd" clipRule="evenodd" d="M121.004 232.136C120.986 232.109 120.889 231.985 120.916 231.826C122.913 232.021 124.68 230.616 124.653 228.592C124.901 228.902 125.219 229.538 125.342 229.927C124.91 231.906 122.807 232.577 121.004 232.136Z" fill="#583711" stroke="white" strokeWidth="0.45" strokeMiterlimit="22.9256"/>
<path fillRule="evenodd" clipRule="evenodd" d="M134.182 207.121C134.2 207.13 134.253 207.201 134.253 207.245C133.688 212.423 127.423 216.576 133.228 219.889C133.228 219.907 133.21 220.737 133.228 220.87C132.106 220.004 129.95 219.182 128.837 219.147C127.441 215.391 132.795 211.239 134.182 207.121Z" fill="white" stroke="white" strokeWidth="0.45" strokeMiterlimit="22.9256"/>
<path fillRule="evenodd" clipRule="evenodd" d="M149.779 215.056C143.735 225.685 148.127 222.195 145.184 233.293C144.787 231.287 143.823 229.352 141.765 227.585C143.859 226.109 144.521 224.731 144.919 222.257C145.432 218.979 147.906 218.148 149.779 215.056Z" fill="white" stroke="white" strokeWidth="0.45" strokeMiterlimit="22.9256"/>
<path fillRule="evenodd" clipRule="evenodd" d="M71.9081 385.572C73.0214 351.218 89.9511 328.642 103.081 303.009C106.227 301.206 110.389 299.351 114.789 298.935C97.7356 332.592 85.4359 354.743 84.6142 386.774C84.4286 424.989 101.288 473.808 152.625 478.624C146.554 479.569 137.215 479.383 127.318 477.166C87.963 461.826 71.2542 428.789 71.9081 385.572Z" fill="#583711" stroke="white" strokeWidth="0.45" strokeMiterlimit="22.9256"/>
<path fillRule="evenodd" clipRule="evenodd" d="M92.5112 386.897C92.3522 425.758 113.85 470.636 157.544 474.727C161.326 475.142 165.107 475.08 168.889 474.55C164.082 476.609 159.187 477.864 152.622 478.624C101.285 473.808 84.4263 424.989 84.6119 386.774C85.4336 354.743 97.7333 332.592 114.787 298.935C116.996 300.066 119.222 301.71 120.185 303.813C107.064 329.623 93.2888 357.447 92.5112 386.897Z" fill="#583711" stroke="white" strokeWidth="0.45" strokeMiterlimit="22.9256"/>
<path fillRule="evenodd" clipRule="evenodd" d="M195.665 215.648L237.68 330.692C228.57 348.965 212.436 360.99 190.311 367.688C188.482 367.635 186.697 367.547 184.947 367.414L182.385 218.095C187.041 218.016 191.512 217.159 195.665 215.648Z" fill="#583711" stroke="white" strokeWidth="0.45" strokeMiterlimit="22.9256"/>
<path fillRule="evenodd" clipRule="evenodd" d="M121.044 309.839L135.95 277.27C136.454 277.588 137.055 277.835 137.823 278.091C140.686 278.993 142.78 277.172 143.602 275.087C144.839 271.818 142.109 268.902 139.644 269.185L164.72 214.419C169.103 216.425 173.901 217.68 178.955 218.016L169.094 364.843C141.305 357.624 125.78 337.381 121.044 309.839Z" fill="#583711" stroke="white" strokeWidth="0.45" strokeMiterlimit="22.9256"/>
<path fillRule="evenodd" clipRule="evenodd" d="M305.164 290.108C299.995 286.353 292.679 285.814 287.97 291.16C283.472 296.134 283.79 311.138 278.559 319.709C265.146 342.426 234.238 345.563 227.496 345.598C218.245 355.759 205.733 363.023 190.306 367.688C199.707 367.935 210.107 367.069 221.523 364.931C263.132 355.636 285.531 341.198 288.65 308.894C289.587 298.591 290.647 292.945 295.029 290.073C297.937 288.279 302.195 288.279 305.164 290.108Z" fill="white" stroke="white" strokeWidth="0.45" strokeMiterlimit="22.9256"/>
<path fillRule="evenodd" clipRule="evenodd" d="M25.3975 346.234C52.789 327.06 75.7713 339.775 99.6903 309.433C87.2139 332.53 72.935 354.116 71.91 385.572C71.2562 428.789 87.965 461.826 127.32 477.166C70.081 472.103 18.8236 412.398 25.3975 346.234Z" fill="white" stroke="white" strokeWidth="0.45" strokeMiterlimit="22.9256"/>
<path fillRule="evenodd" clipRule="evenodd" d="M95.2161 317.57C73.1527 338.264 50.6298 334.385 29.6709 348.717C29.1496 355.203 28.6459 364.33 30.6429 370.816C45.5314 359.091 65.6951 355.645 80.1066 347.728C84.3567 337.116 89.7908 327.361 95.2161 317.57Z" fill="#583711" stroke="white" strokeWidth="0.45" strokeMiterlimit="22.9256"/>
<path fillRule="evenodd" clipRule="evenodd" d="M78.242 352.649C62.6288 360.717 44.8332 363.12 32.94 372.371C32.348 378.221 33.1432 387.958 35.1755 394.152L37.4817 395.309C46.8566 382.267 60.6231 379.917 72.9404 373.829C74.036 366.266 75.8828 359.267 78.242 352.649Z" fill="#583711" stroke="white" strokeWidth="0.45" strokeMiterlimit="22.9256"/>
<path fillRule="evenodd" clipRule="evenodd" d="M46.2996 419.29C43.26 414.413 38.8685 404.56 38.6123 399.409C44.9565 385.652 59.9953 384.202 72.4187 378C72.1625 380.456 71.9857 382.983 71.9062 385.572C71.8355 389.875 71.9504 394.072 72.2331 398.163C62.6373 402.042 55.003 406.814 48.0491 419.511L46.2996 419.29Z" fill="#583711" stroke="white" strokeWidth="0.45" strokeMiterlimit="22.9256"/>
<path fillRule="evenodd" clipRule="evenodd" d="M72.6686 403.103C63.0993 406.354 55.3413 413.017 50.6494 421.791C52.1515 429.213 56.7992 434.223 60.8019 439.021L62.8695 438.765C66.0947 434.947 69.3993 429.381 77.0248 424.441C74.913 417.753 73.4727 410.622 72.6686 403.103Z" fill="#583711" stroke="white" strokeWidth="0.45" strokeMiterlimit="22.9256"/>
<path fillRule="evenodd" clipRule="evenodd" d="M77.9932 427.357C72.886 430.538 67.5844 436.388 65.667 440.381C67.6904 444.791 72.5502 450.87 76.1111 453.609L77.5337 453.485C79.1153 449.703 81.8191 445.33 85.1414 442.732C82.2874 437.934 79.9106 432.8 77.9932 427.357Z" fill="#583711" stroke="white" strokeWidth="0.45" strokeMiterlimit="22.9256"/>
<path fillRule="evenodd" clipRule="evenodd" d="M86.5161 444.932C83.8035 447.194 81.6917 450.331 80.1631 454.307C83.4766 457.992 86.7812 461.871 91.6233 464.442L93.1255 464.398C93.417 461.234 94.548 458.919 96.218 457.134C92.5511 453.379 89.3171 449.306 86.5161 444.932Z" fill="#583711" stroke="white" strokeWidth="0.45" strokeMiterlimit="22.9256"/>
<path fillRule="evenodd" clipRule="evenodd" d="M224.038 379.988C160.737 393.586 124.819 372.724 102.278 342.523C107.377 329.181 113.862 316.263 120.189 303.813C125.252 349.009 157.07 376.975 221.528 364.931C263.137 355.636 285.536 341.198 288.655 308.894C289.592 298.591 290.652 292.945 295.035 290.073C299.488 287.334 307.087 288.783 308.421 294.562C309.649 300.817 306.566 304.423 303.137 305.05C300.124 305.536 297.686 303.353 297.235 301.365C296.148 296.267 300.981 294.376 303.323 297.707C303.685 295.507 300.84 293.651 298.905 294.226C293.427 295.852 295.874 305.81 296.652 311.412C299.232 323.906 291.872 341.569 276.108 354.787C261.184 366.089 244.193 375.313 224.038 379.988Z" fill="#583711" stroke="white" strokeWidth="0.45" strokeMiterlimit="22.9256"/>
<path fillRule="evenodd" clipRule="evenodd" d="M298.751 303.769C306.288 349.177 304.097 394.39 255.746 438.676C221.365 466.536 198.71 478.376 152.622 478.624C159.187 477.864 164.082 476.609 168.889 474.55C165.107 475.08 161.325 475.142 157.543 474.727C113.849 470.636 92.3516 425.758 92.5106 386.897C92.9171 371.655 96.7961 356.838 102.274 342.523C124.815 372.725 160.733 393.586 224.034 379.988C244.189 375.314 261.18 366.089 276.104 354.788C291.868 341.569 299.228 323.906 296.648 311.412C295.87 305.81 293.423 295.852 298.901 294.226C300.836 293.652 303.681 295.507 303.319 297.707C300.977 294.376 296.144 296.267 297.231 301.365C297.417 302.205 297.964 303.08 298.751 303.769Z" fill="white" stroke="white" strokeWidth="0.45" strokeMiterlimit="22.9256"/>
<path fillRule="evenodd" clipRule="evenodd" d="M93.2613 376.939C155.316 426.288 251.195 411.841 297.231 347.25C297.991 351.624 297.982 356.352 296.974 360.16C251.717 423.69 164.126 439.286 93.8268 404.128C92.9256 398.349 92.4926 392.561 92.5103 386.897C92.5986 383.557 92.8549 380.235 93.2613 376.939Z" fill="#583711" stroke="white" strokeWidth="0.45" strokeMiterlimit="22.9256"/>
<path fillRule="evenodd" clipRule="evenodd" d="M94.625 408.625C156.671 439.666 247.575 430.794 295.802 364.118C294.804 369.128 292.524 378.972 289.573 383.672C241.364 447.353 157.466 453.247 101.738 431.21C98.5305 424.017 96.1536 416.374 94.625 408.625Z" fill="#583711" stroke="white" strokeWidth="0.45" strokeMiterlimit="22.9256"/>
<path fillRule="evenodd" clipRule="evenodd" d="M104.116 436.158C167.514 457.735 237.919 444.305 284.414 393.074C282.815 397.951 281.101 405.453 278.662 407.397C238.714 449.2 179.072 471.122 116.009 453.538C111.353 448.36 107.386 442.476 104.116 436.158Z" fill="#583711" stroke="white" strokeWidth="0.45" strokeMiterlimit="22.9256"/>
<path fillRule="evenodd" clipRule="evenodd" d="M120.326 457.947C176.046 469.708 223.407 456.26 267.816 420.156C263.354 425.245 261.507 427.614 257.045 432.703C219.722 462.577 172.591 474.603 136.717 469.116C130.62 466.253 125.159 462.454 120.326 457.947Z" fill="#583711" stroke="white" strokeWidth="0.45" strokeMiterlimit="22.9256"/>
<path fillRule="evenodd" clipRule="evenodd" d="M144.448 472.12C170.576 472.686 192.86 468.736 221.021 456.799C210.515 465.997 187.064 474.144 168.889 474.55C165.107 475.08 161.325 475.142 157.543 474.727C152.931 474.303 148.566 473.41 144.448 472.12Z" fill="#583711" stroke="white" strokeWidth="0.45" strokeMiterlimit="22.9256"/>
<path fillRule="evenodd" clipRule="evenodd" d="M100.295 347.94C141.648 402.334 232.605 400.629 285.347 347.86C290.304 342.196 293.944 335.923 296.639 329.04C298.398 332.6 298.663 338.848 298.742 343.265C254.739 407.379 156.2 426.217 94.1455 371.01C95.5062 363.191 97.6446 355.494 100.295 347.94Z" fill="#583711" stroke="white" strokeWidth="0.45" strokeMiterlimit="22.9256"/>
<path fillRule="evenodd" clipRule="evenodd" d="M66.4287 237.861C67.5862 238.656 68.3284 239.708 70.8114 239.885C70.776 239.681 70.7495 239.478 70.723 239.275C70.6523 238.939 70.4049 238.568 69.9278 238.683C68.4345 239.408 67.8601 238.427 66.4287 237.861ZM75.4414 239.346C75.9185 239.31 76.378 239.346 76.811 239.514C78.5782 240.176 80.416 240.786 82.3334 239.779C82.8283 239.452 83.5351 239.116 84.4187 238.877C84.3127 238.4 84.242 237.905 84.2243 237.393C84.189 236.889 83.5616 236.721 83.3054 236.836C82.6162 237.084 81.3085 238.745 79.7445 238.913C78.3396 238.939 77.0937 237.446 75.9009 238.383C75.6976 238.656 75.5474 238.983 75.4414 239.346Z" fill="white" stroke="white" strokeWidth="0.45" strokeMiterlimit="22.9256"/>
<path fillRule="evenodd" clipRule="evenodd" d="M141.632 184.916L3.04868 211.079C2.37714 215.153 1.85582 219.12 1.49354 222.999L15.9138 220.843C18.9446 220.287 19.2008 222.31 16.7621 223.255L1.14011 227.868C0.671802 238.462 1.36984 249.136 3.3491 258.82L6.25613 258.352C8.47396 257.901 9.71982 259.934 7.85544 260.861L4.20619 262.628C5.5846 268.222 7.42247 273.417 9.7375 277.994L71.4125 241.89C71.0767 241.086 70.8205 240.194 70.7233 239.275C70.6526 238.939 70.4052 238.568 69.9369 238.683C68.3464 239.452 67.7898 238.303 66.1463 237.755C65.3952 237.552 65.1743 236.085 66.6234 235.016C68.9031 233.611 70.1048 231.552 70.0164 227.647C70.1489 220.331 75.6626 223.945 78.3311 223.936C80.7344 218.802 86.4601 218.555 90.94 221.524C93.2373 221.25 95.9853 221.859 97.3107 223.512C98.7421 222.672 100.872 222.328 103.469 223.132L105.926 221.691C106.191 221.046 106.191 220.428 106.341 219.968C106.641 219.023 107.737 218.237 109.124 218.104C109.981 217.989 110.573 218.316 111.157 218.634L146.509 197.94C144.185 193.982 142.507 189.59 141.632 184.916ZM75.371 239.575L77.6242 238.259C77.0322 238.038 76.4578 237.95 75.9012 238.383C75.6538 238.71 75.4859 239.116 75.371 239.575Z" fill="#583711" stroke="white" strokeWidth="0.45" strokeMiterlimit="22.9256"/>
<path fillRule="evenodd" clipRule="evenodd" d="M184.992 136.734L192.927 39.1848C206.349 37.7798 218.807 39.6177 230.489 44.0269L229.092 49.0015C228.792 50.1767 230.754 50.9896 231.328 49.8851L233.325 45.1579C234.482 45.6438 235.631 46.1475 236.771 46.6777L230.692 64.5263C230.533 65.7015 231.92 65.8252 232.238 64.9504L239.917 48.2239C241.56 49.0634 243.177 49.947 244.785 50.8924L199.89 140.878C195.339 138.607 190.311 137.158 184.992 136.734Z" fill="#583711" stroke="white" strokeWidth="0.45" strokeMiterlimit="22.9256"/>
<path fillRule="evenodd" clipRule="evenodd" d="M214.31 152.921L309.199 81.8446C312.274 85.7943 314.792 90.0444 316.771 94.5861L299.983 104.862C299.108 105.666 300.098 106.647 300.902 106.179L318.114 97.9261C321.278 106.532 322.638 116.11 322.294 126.616L315.075 129.25C313.829 129.691 314.43 131.441 315.455 131.388L322.135 129.815C321.967 132.448 321.702 135.143 321.322 137.882L220.91 166.263C219.532 161.386 217.27 156.871 214.31 152.921Z" fill="#583711" stroke="white" strokeWidth="0.45" strokeMiterlimit="22.9256"/>
<path fillRule="evenodd" clipRule="evenodd" d="M13.7112 197.278C13.5521 194.715 13.4814 192.206 13.4814 189.758L19.8522 189.29C21.1599 189.078 20.8771 187.249 19.8522 187.125L13.5256 186.789C13.7288 179.818 14.6124 173.297 16.2206 167.271L37.047 168.543C38.231 168.49 38.1073 167.103 37.1883 166.944L16.9628 164.7C18.8007 158.735 21.3985 153.275 24.7915 148.344L141.603 169.939C141.161 172.343 140.931 174.826 140.931 177.353C140.931 178.978 141.029 180.578 141.214 182.151L13.7112 197.278Z" fill="#583711" stroke="white" strokeWidth="0.45" strokeMiterlimit="22.9256"/>
<path fillRule="evenodd" clipRule="evenodd" d="M141.039 180.383L140.933 177.353L44.4799 177.741C43.9939 177.75 44.0734 179.058 44.4799 179.049L141.039 180.383Z" fill="white" stroke="white" strokeWidth="0.45" strokeMiterlimit="22.9256"/>
<path fillRule="evenodd" clipRule="evenodd" d="M142.873 189.891L142.395 188.177L82.1253 204.567C81.657 204.7 81.8072 205.186 82.196 205.08L142.873 189.891Z" fill="white" stroke="white" strokeWidth="0.45" strokeMiterlimit="22.9256"/>
<path fillRule="evenodd" clipRule="evenodd" d="M144.771 194.636L143.658 192.038L29.6385 235.582C29.1879 235.776 29.4088 236.244 29.7799 236.076L144.771 194.636Z" fill="white" stroke="white" strokeWidth="0.45" strokeMiterlimit="22.9256"/>
<path fillRule="evenodd" clipRule="evenodd" d="M141.004 174.861L141.163 172.952L95.0927 169.383C94.0677 169.4 94.2091 170.319 95.1103 170.39L141.004 174.861Z" fill="white" stroke="white" strokeWidth="0.45" strokeMiterlimit="22.9256"/>
<path fillRule="evenodd" clipRule="evenodd" d="M187.372 217.706L185.464 217.927L191.066 263.804C191.296 264.802 192.162 264.475 192.055 263.583L187.372 217.706Z" fill="white" stroke="white" strokeWidth="0.45" strokeMiterlimit="22.9256"/>
<path fillRule="evenodd" clipRule="evenodd" d="M202.033 142.035L243.951 69.2888C252.654 69.7836 260.527 71.3034 267.304 74.1574L264.442 79.0084C264.009 80.7137 266.112 81.0053 267.207 79.998L272.509 76.7287C277.846 79.8213 282.317 83.9742 285.772 89.373L212.804 151.048C209.774 147.461 206.124 144.403 202.033 142.035Z" fill="#583711" stroke="white" strokeWidth="0.45" strokeMiterlimit="22.9256"/>
<path fillRule="evenodd" clipRule="evenodd" d="M147.949 154.485L46.9629 86.0242C53.0597 77.3296 60.5879 70.6938 69.4239 65.9135L72.4016 68.5997C73.7712 69.713 74.4516 68.3699 73.7712 67.4598L71.4208 64.8797C72.8699 64.1552 74.3544 63.4837 75.8653 62.8563L86.9191 75.3504C87.838 76.1014 88.6686 74.9881 88.0943 74.2547L78.251 61.9109C82.1212 60.4618 86.1857 59.3043 90.4535 58.4207L156.882 145.013C153.427 147.673 150.405 150.871 147.949 154.485Z" fill="#583711" stroke="white" strokeWidth="0.45" strokeMiterlimit="22.9256"/>
<path fillRule="evenodd" clipRule="evenodd" d="M300.508 259.235L298.803 262.673L295.949 261.153C294.791 260.587 295.648 257.68 297.106 258.104L300.508 259.235Z" stroke="white" strokeWidth="0.45" strokeMiterlimit="22.9256"/>
<path fillRule="evenodd" clipRule="evenodd" d="M37.9697 140.189C39.1714 136.583 40.6293 133.217 42.317 130.063L43.8015 130.672C45.2329 131.194 46.2844 128.348 45.171 127.703L44.0665 127.014C48.7054 119.442 54.8199 113.23 62.2244 108.194L146.413 156.933C144.576 160.096 143.153 163.524 142.225 167.147L37.9697 140.189Z" fill="#583711" stroke="white" strokeWidth="0.45" strokeMiterlimit="22.9256"/>
<path fillRule="evenodd" clipRule="evenodd" d="M211.859 204.744L287.027 272.975C285.251 289.711 277.917 304.113 264.027 315.759L251.241 298.573C250.384 297.628 248.184 299.218 249.059 300.526L259.132 319.55C256.136 321.697 252.894 323.738 249.386 325.673L198.614 214.437C203.668 212.122 208.166 208.809 211.859 204.744Z" fill="#583711" stroke="white" strokeWidth="0.45" strokeMiterlimit="22.9256"/>
<path fillRule="evenodd" clipRule="evenodd" d="M221.519 168.72L321.321 147.081C321.904 149.793 322.337 152.497 322.611 155.192L319.147 156.199C317.486 156.783 318.405 158.7 319.854 159.053L322.947 159.804C323.097 163.692 322.929 167.554 322.452 171.406L300.335 172.917C298.215 172.961 298.064 174.119 300.238 174.304L321.93 174.87C320.861 180.984 318.979 187.063 316.302 193.089L222.164 182.089C222.34 180.534 222.438 178.952 222.438 177.353C222.438 174.393 222.119 171.503 221.519 168.72Z" fill="#583711" stroke="white" strokeWidth="0.45" strokeMiterlimit="22.9256"/>
<path fillRule="evenodd" clipRule="evenodd" d="M221.624 185.508L305.848 202.712C306.105 205.416 306.317 208.093 306.467 210.753L292.338 208.641C290.28 208.438 289.555 210.47 291.737 211.177L306.653 214.543C306.75 217.362 306.785 220.154 306.741 222.92L296.456 220.746C294.362 220.578 293.107 222.743 295.042 223.468L306.564 228.08C305.76 242.721 302.447 256.249 294.971 267.957L213.513 202.809C217.48 197.852 220.308 191.958 221.624 185.508Z" fill="#583711" stroke="white" strokeWidth="0.45" strokeMiterlimit="22.9256"/>
<path fillRule="evenodd" clipRule="evenodd" d="M147.944 200.211L132.066 210.965C130.122 213.783 127.878 216.558 128.841 219.147C129.954 219.182 132.11 220.004 133.233 220.87C132.579 213.863 145.426 213.686 149.853 208.04C150.418 207.315 151.744 207.483 151.735 208.773C151.39 211.68 150.648 213.615 149.773 215.056H149.782C147.326 219.368 146.593 221.364 146.389 222.946L156.736 209.577C153.334 206.935 150.365 203.772 147.944 200.211ZM93.4 237.145L89.0439 240.097C88.39 241.581 88.2575 243.56 87.692 243.64C87.206 243.578 86.5345 243.057 85.916 242.217L2.21289 298.909C2.99929 301.781 3.88289 304.635 4.85484 307.436L29.4542 292.52C30.8061 291.708 32.2728 293.996 31.2832 294.8L7.55865 314.522C8.52177 316.828 9.55557 319.099 10.6512 321.326L12.7895 319.691C14.6981 318.419 15.8379 320.257 14.3888 321.741L11.9943 323.968C13.8499 327.493 15.8821 330.886 18.0823 334.12L28.0846 326.769C29.7988 325.62 30.8237 327.908 29.4542 329.508L21.113 338.317C22.2263 339.784 23.3927 341.215 24.5944 342.594L25.2041 342.179C33.1741 336.727 41.5418 333.519 50.6958 330.692C56.1653 328.995 61.6347 327.475 66.9628 325.523L123.036 253.103C118.353 250.187 113.281 249.693 110.02 252.688C107.485 255.082 107.688 256.77 109.075 258.228C110.851 259.748 109.552 262.84 106.725 262.301C103.155 261.603 100.009 261.736 99.2494 264.661C98.896 266.578 98.9667 268.964 96.9962 270.404C95.6709 271.243 94.4515 271.182 92.5518 270.148C90.9878 269.034 88.1956 269.353 85.7569 270.148C81.3389 271.429 80.3758 268.796 79.1741 266.596C78.6086 265.509 77.6543 263.53 79.5364 263.22C81.1622 262.938 81.5952 262.363 81.5245 260.897C81.3831 259.757 81.4715 258.405 81.9309 257.168C82.0988 256.699 82.8587 256.664 83.062 257C84.1929 260.464 86.1103 262.39 88.9467 262.434C89.954 262.337 91.518 262.24 91.7212 261.365C91.7919 260.11 91.9067 258.688 92.4634 257.76C92.5606 257.698 93.453 257.627 93.4795 257.786C93.6563 258.979 94.1511 260.755 95.2732 260.658C97.5971 260.349 98.7723 250.17 104.056 250.285C108.342 250.302 108.81 247.819 106.778 245.257C103.826 241.281 99.5499 238.25 95.9536 237.419C94.9286 237.198 94.1157 237.092 93.4 237.145Z" fill="#583711"/>
<path d="M141.945 227.744C142.086 227.877 142.228 228.009 142.369 228.142M147.944 200.211L132.066 210.965C130.122 213.783 127.878 216.558 128.841 219.147C129.954 219.182 132.11 220.004 133.233 220.87C132.579 213.863 145.426 213.686 149.853 208.04C150.418 207.315 151.744 207.483 151.735 208.773C151.39 211.68 150.648 213.615 149.773 215.056H149.782C147.326 219.368 146.593 221.364 146.389 222.946L156.736 209.577C153.334 206.935 150.365 203.772 147.944 200.211ZM93.4 237.145L89.0439 240.097C88.39 241.581 88.2575 243.56 87.692 243.64C87.206 243.578 86.5345 243.057 85.916 242.217L2.21289 298.909C2.99929 301.781 3.88289 304.635 4.85484 307.436L29.4542 292.52C30.8061 291.708 32.2728 293.996 31.2832 294.8L7.55865 314.522C8.52177 316.828 9.55557 319.099 10.6512 321.326L12.7895 319.691C14.6981 318.419 15.8379 320.257 14.3888 321.741L11.9943 323.968C13.8499 327.493 15.8821 330.886 18.0823 334.12L28.0846 326.769C29.7988 325.62 30.8237 327.908 29.4542 329.508L21.113 338.317C22.2263 339.784 23.3927 341.215 24.5944 342.594L25.2041 342.179C33.1741 336.727 41.5418 333.519 50.6958 330.692C56.1653 328.995 61.6347 327.475 66.9628 325.523L123.036 253.103C118.353 250.187 113.281 249.693 110.02 252.688C107.485 255.082 107.688 256.77 109.075 258.228C110.851 259.748 109.552 262.84 106.725 262.301C103.155 261.603 100.009 261.736 99.2494 264.661C98.896 266.578 98.9667 268.964 96.9963 270.404C95.6709 271.243 94.4515 271.182 92.5518 270.148C90.9878 269.034 88.1956 269.353 85.7569 270.148C81.3389 271.429 80.3758 268.796 79.1741 266.596C78.6086 265.509 77.6543 263.53 79.5364 263.22C81.1622 262.938 81.5952 262.363 81.5245 260.897C81.3831 259.757 81.4715 258.405 81.9309 257.168C82.0988 256.699 82.8587 256.664 83.0619 257C84.193 260.464 86.1103 262.39 88.9467 262.434C89.954 262.337 91.518 262.24 91.7212 261.365C91.7919 260.11 91.9067 258.688 92.4634 257.76C92.5606 257.698 93.453 257.627 93.4795 257.786C93.6563 258.979 94.1511 260.755 95.2732 260.658C97.5971 260.349 98.7723 250.17 104.056 250.285C108.342 250.302 108.81 247.819 106.778 245.257C103.826 241.281 99.5498 238.25 95.9536 237.419C94.9286 237.198 94.1157 237.092 93.4 237.145Z" stroke="white" strokeWidth="0.45" strokeMiterlimit="22.9256"/>
<path fillRule="evenodd" clipRule="evenodd" d="M103.348 241.546C99.16 241.723 97.5872 244.258 94.4593 247.404C91.9676 249.86 87.9119 250.011 84.7839 247.978C84.1654 247.598 83.4939 248.111 83.6353 248.791C84.4482 252.679 89.2196 254.835 92.7275 254.985C95.1662 255.056 97.2515 254.667 99.2131 254.049C100.362 251.981 101.855 250.232 104.055 250.285C108.341 250.302 108.809 247.819 106.777 245.257C105.761 243.896 104.594 242.641 103.348 241.546Z" fill="#583711" stroke="white" strokeWidth="0.45" strokeMiterlimit="22.9256"/>
<path fillRule="evenodd" clipRule="evenodd" d="M89.9303 238.842C91.0525 239.063 92.4044 239.328 93.4293 239.726C95.223 240.512 95.8062 241.617 94.6575 243.278C93.5442 244.78 92.5899 246.671 91.9184 248.977C92.855 248.65 93.7209 248.12 94.4543 247.404C97.5822 244.258 99.155 241.723 103.343 241.546C100.966 239.461 98.3068 237.967 95.9476 237.419C93.235 236.836 92.0421 237.084 89.9303 238.842ZM90.8316 254.729C90.1954 257.804 88.331 260.084 85.583 261.197C86.5196 261.992 87.633 262.408 88.9407 262.434C89.948 262.337 91.5119 262.24 91.7152 261.365C91.7859 260.11 91.9007 258.688 92.4574 257.76C92.5546 257.698 93.447 257.627 93.4735 257.786C93.6502 258.979 94.1451 260.755 95.2672 260.658C96.628 260.481 97.5911 256.947 99.2081 254.049C97.2465 254.667 95.1612 255.056 92.7225 254.985C92.1216 254.959 91.4854 254.87 90.8316 254.729Z" fill="white" stroke="white" strokeWidth="0.45" strokeMiterlimit="22.9256"/>
<path fillRule="evenodd" clipRule="evenodd" d="M100.843 242.014C102.372 241.935 103.044 242.412 103.53 242.942C103.963 243.499 103.724 244.082 103.15 244.285C99.3855 245.557 99.2972 247.978 95.7363 249.454C94.3402 250.028 94.5611 250.877 96.2664 250.497C99.3413 249.56 101.197 247.554 103.936 246.582C105.014 246.238 105.359 247.431 104.705 248.288C103.565 249.684 100.552 249.189 98.4401 254.278C98.6963 254.208 98.9526 254.128 99.2088 254.049C100.357 251.981 101.851 250.232 104.051 250.285C108.336 250.302 108.805 247.819 106.772 245.257C105.756 243.896 104.59 242.641 103.344 241.546C102.39 241.59 101.568 241.749 100.843 242.014Z" fill="white" stroke="white" strokeWidth="0.45" strokeMiterlimit="22.9256"/>
<path fillRule="evenodd" clipRule="evenodd" d="M79.6566 267.506L48.2006 291.469C47.2993 292.114 46.6455 291.522 47.4407 290.674L78.4903 264.935C78.6228 265.518 78.9321 266.136 79.1706 266.596C79.3297 266.887 79.4887 267.197 79.6566 267.506Z" fill="white" stroke="white" strokeWidth="0.45" strokeMiterlimit="22.9256"/>
<path fillRule="evenodd" clipRule="evenodd" d="M171.621 216.849L155.787 264.899C155.336 265.977 153.949 265.394 154.179 264.396L168.175 215.807L171.621 216.849Z" fill="white" stroke="white" strokeWidth="0.45" strokeMiterlimit="22.9256"/>
<path fillRule="evenodd" clipRule="evenodd" d="M126.584 328.898L136.569 304.794C137.046 303.724 138.415 304.334 138.159 305.333L129.138 334.2C128.219 332.485 127.362 330.718 126.584 328.898Z" fill="white" stroke="white" strokeWidth="0.45" strokeMiterlimit="22.9256"/>
<path fillRule="evenodd" clipRule="evenodd" d="M220.34 352.366L212.317 315.538C212.264 314.372 213.766 314.292 213.987 315.3L224.873 348.311C223.432 349.725 221.922 351.076 220.34 352.366Z" fill="white" stroke="white" strokeWidth="0.45" strokeMiterlimit="22.9256"/>
<path fillRule="evenodd" clipRule="evenodd" d="M157.227 360.655L162.51 336.462C162.802 335.331 164.251 335.702 164.172 336.736L160.134 361.909C159.153 361.512 158.181 361.096 157.227 360.655Z" fill="white" stroke="white" strokeWidth="0.45" strokeMiterlimit="22.9256"/>
<path fillRule="evenodd" clipRule="evenodd" d="M176.275 217.751L156.27 318.41C156.147 319.514 155.272 319.594 155.175 318.436L173.527 217.291L176.275 217.751Z" fill="white" stroke="white" strokeWidth="0.45" strokeMiterlimit="22.9256"/>
<path fillRule="evenodd" clipRule="evenodd" d="M176.275 217.751L156.27 318.41C156.147 319.514 155.272 319.594 155.175 318.436L173.527 217.291L176.275 217.751Z" fill="white" stroke="white" strokeWidth="0.45" strokeMiterlimit="22.9256"/>
<path fillRule="evenodd" clipRule="evenodd" d="M217.002 197.702L281.196 235.414C282.212 235.864 282.026 236.73 280.886 236.465L215.43 200.211L217.002 197.702Z" fill="white" stroke="white" strokeWidth="0.45" strokeMiterlimit="22.9256"/>
<path fillRule="evenodd" clipRule="evenodd" d="M150.157 151.534L151.315 150.182L89.8958 99.8701C89.5247 99.5431 89.2066 99.9407 89.507 100.206L150.157 151.534Z" fill="white" stroke="white" strokeWidth="0.45" strokeMiterlimit="22.9256"/>
<path fillRule="evenodd" clipRule="evenodd" d="M163.351 141.028L166.294 139.614L143.417 94.9573C142.675 93.6142 141.756 94.3211 142.304 95.4079L163.351 141.028Z" fill="white" stroke="white" strokeWidth="0.45" strokeMiterlimit="22.9256"/>
<path fillRule="evenodd" clipRule="evenodd" d="M143.4 163.365L144.566 160.502L96.1363 143.679C95.6857 143.484 95.4913 143.962 95.8624 144.121L143.4 163.365Z" fill="white" stroke="white" strokeWidth="0.45" strokeMiterlimit="22.9256"/>
<path fillRule="evenodd" clipRule="evenodd" d="M153.655 147.788L155.078 146.489L123.604 112.647C122.835 111.967 122.314 112.735 122.932 113.398L153.655 147.788Z" fill="white" stroke="white" strokeWidth="0.45" strokeMiterlimit="22.9256"/>
<path fillRule="evenodd" clipRule="evenodd" d="M170.498 138.174L172.353 137.679L160.159 93.1017C159.788 92.1474 158.975 92.5892 159.214 93.4552L170.498 138.174Z" fill="white" stroke="white" strokeWidth="0.45" strokeMiterlimit="22.9256"/>
<path fillRule="evenodd" clipRule="evenodd" d="M190.602 137.582L193.756 138.421L209.581 53.7816C209.89 52.2883 208.733 52.2265 208.433 53.4105L190.602 137.582Z" fill="white" stroke="white" strokeWidth="0.45" strokeMiterlimit="22.9256"/>
<path fillRule="evenodd" clipRule="evenodd" d="M217.27 157.472L218.754 160.379L291.386 124.063C292.711 123.294 291.978 122.393 290.908 122.958L217.27 157.472Z" fill="white" stroke="white" strokeWidth="0.45" strokeMiterlimit="22.9256"/>
<path fillRule="evenodd" clipRule="evenodd" d="M209.813 206.847L207.551 208.844L251.633 254.747C252.384 255.445 253.18 254.544 252.588 253.872L209.813 206.847Z" fill="white" stroke="white" strokeWidth="0.45" strokeMiterlimit="22.9256"/>
<path fillRule="evenodd" clipRule="evenodd" d="M205.66 210.311L203.168 211.998L222.598 236.969C223.243 237.755 224.153 236.969 223.65 236.218L205.66 210.311Z" fill="white" stroke="white" strokeWidth="0.45" strokeMiterlimit="22.9256"/>
<path fillRule="evenodd" clipRule="evenodd" d="M222.019 171.486L222.337 174.481L266.455 167.704C267.462 167.501 267.188 166.334 266.296 166.414L222.019 171.486Z" fill="white" stroke="white" strokeWidth="0.45" strokeMiterlimit="22.9256"/>
<path fillRule="evenodd" clipRule="evenodd" d="M208.291 146.489L210.5 148.538L244.306 111.79C244.925 110.977 243.953 110.27 243.334 110.924L208.291 146.489Z" fill="white" stroke="white" strokeWidth="0.45" strokeMiterlimit="22.9256"/>
<path fillRule="evenodd" clipRule="evenodd" d="M203.964 143.219L206.42 144.96L220.089 122.773C220.602 121.889 219.551 121.315 219.02 122.048L203.964 143.219Z" fill="white" stroke="white" strokeWidth="0.45" strokeMiterlimit="22.9256"/>
<path fillRule="evenodd" clipRule="evenodd" d="M220.565 189.582L219.566 192.418L250.042 201.554C251.031 201.802 251.296 200.626 250.448 200.326L220.565 189.582Z" fill="white" stroke="white" strokeWidth="0.45" strokeMiterlimit="22.9256"/>
<path fillRule="evenodd" clipRule="evenodd" d="M36.7363 335.781L77.9296 297.115C79.4317 295.71 80.5892 296.311 79.4935 298.114L48.5588 331.363C44.4766 332.671 40.5446 334.085 36.7363 335.781Z" fill="white" stroke="white" strokeWidth="0.45" strokeMiterlimit="22.9256"/>
<path fillRule="evenodd" clipRule="evenodd" d="M122.243 298.794C123.374 300.331 121.951 305.863 120.184 303.813C119.221 301.71 116.994 300.066 114.785 298.935C110.385 299.351 106.223 301.206 103.078 303.009C101.735 302.169 102.486 297.716 106.064 296.382C111.878 283.596 117.984 259.297 110.085 252.617C113.813 249.286 119.831 250.426 124.964 254.464C132.457 260.844 132.033 275.131 122.243 298.794Z" fill="white" stroke="white" strokeWidth="0.45" strokeMiterlimit="22.9256"/>
<path fillRule="evenodd" clipRule="evenodd" d="M113.668 268.522C114.534 267.258 115.515 266.092 116.584 265.014C115.7 264.184 114.772 263.397 113.809 262.681C113.765 261.771 113.677 260.897 113.553 260.066C115.152 261.197 116.601 262.31 118.033 263.662C120.869 261.215 124.227 259.333 127.876 258.007C128.194 258.573 128.486 259.174 128.733 259.801C125.349 261.011 122.168 262.726 119.429 265.067C122.08 267.868 124.351 271.111 126.189 274.548C127.373 274.168 128.565 273.85 129.767 273.55C129.679 274.239 129.573 274.946 129.449 275.67C128.663 275.874 127.876 276.094 127.099 276.333C127.655 277.464 128.159 278.622 128.618 279.779C128.362 280.875 128.071 281.997 127.752 283.163C127.001 281.025 126.215 279.001 125.208 276.96C122.424 277.968 119.906 279.275 117.503 281.016C120.489 284.427 122.769 288.677 124.669 292.618C124.359 293.448 124.041 294.305 123.706 295.171C121.753 290.462 119.464 285.973 115.992 282.191C112.263 285.248 109.815 288.527 107.598 292.768C108.534 290.4 109.436 287.802 110.257 285.089C111.565 283.534 113.023 282.085 114.587 280.778C113.756 280.018 112.89 279.32 111.971 278.719C112.131 278.038 112.281 277.349 112.422 276.669C113.774 277.544 114.923 278.392 116.133 279.567C118.669 277.703 121.346 276.28 124.298 275.193C122.557 272.012 120.445 269.008 117.98 266.41C116.089 268.301 114.516 270.519 113.35 273.064L112.943 273.965C113.262 272.109 113.509 270.289 113.668 268.522Z" fill="#583711" stroke="white" strokeWidth="0.45" strokeMiterlimit="22.9256"/>
<path fillRule="evenodd" clipRule="evenodd" d="M117.742 294.712C117.044 294.173 115.789 293.802 114.914 293.881C112.06 294.146 109.621 294.959 106.988 296.011L106.069 296.382C106.343 295.781 106.608 295.162 106.882 294.526C109.515 293.439 111.83 292.185 114.729 291.92C116.116 291.787 117.883 292.308 118.979 293.174C120.269 294.226 121.806 295.595 123.017 296.903C122.769 297.522 122.513 298.158 122.248 298.794C121.002 297.327 119.217 295.958 117.742 294.712Z" fill="#583711" stroke="white" strokeWidth="0.45" strokeMiterlimit="22.9256"/>
</svg>
